<?xml version="1.0" encoding="UTF-8"?>
<!DOCTYPE svg PUBLIC "-//W3C//DTD SVG 1.1//EN" "http://www.w3.org/Graphics/SVG/1.1/DTD/svg11.dtd">
<svg xmlns="http://www.w3.org/2000/svg" version="1.1" width="512px" height="512px" style="shape-rendering:geometricPrecision; text-rendering:geometricPrecision; image-rendering:optimizeQuality; fill-rule:evenodd; clip-rule:evenodd" xmlns:xlink="http://www.w3.org/1999/xlink">
<g><path style="opacity:0.989" fill="#783bcc" d="M 118.5,-0.5 C 129.167,-0.5 139.833,-0.5 150.5,-0.5C 177.466,3.14788 201.466,13.6479 222.5,31C 233.368,42.0354 244.368,52.8688 255.5,63.5C 255.833,64.1667 256.167,64.8333 256.5,65.5C 255.501,107.33 255.168,149.33 255.5,191.5C 234.368,170.868 213.368,150.035 192.5,129C 191.906,128.536 191.239,128.369 190.5,128.5C 181.369,118.868 172.036,109.368 162.5,100C 149.097,90.1749 134.43,87.8416 118.5,93C 94.3504,105.139 85.8504,124.305 93,150.5C 94.8287,154.828 97.162,158.828 100,162.5C 109.368,172.036 118.868,181.369 128.5,190.5C 108.086,212.415 87.0865,233.915 65.5,255C 64.9056,255.464 64.2389,255.631 63.5,255.5C 52.8688,244.368 42.0354,233.368 31,222.5C 13.6479,201.466 3.14788,177.466 -0.5,150.5C -0.5,139.833 -0.5,129.167 -0.5,118.5C 8.9098,60.5795 41.5765,22.4128 97.5,4C 104.621,2.41113 111.621,0.911125 118.5,-0.5 Z M 190.5,128.5 C 170.167,149.5 149.5,170.167 128.5,190.5C 118.868,181.369 109.368,172.036 100,162.5C 97.162,158.828 94.8287,154.828 93,150.5C 85.8504,124.305 94.3504,105.139 118.5,93C 134.43,87.8416 149.097,90.1749 162.5,100C 172.036,109.368 181.369,118.868 190.5,128.5 Z"/></g>
<g><path style="opacity:0.989" fill="#3b87f4" d="M 360.5,-0.5 C 371.167,-0.5 381.833,-0.5 392.5,-0.5C 450.42,8.9098 488.587,41.5765 507,97.5C 508.589,104.621 510.089,111.621 511.5,118.5C 511.5,129.167 511.5,139.833 511.5,150.5C 507.852,177.466 497.352,201.466 480,222.5C 468.965,233.368 458.131,244.368 447.5,255.5C 425.585,275.914 404.085,296.914 383,318.5C 382.536,319.094 382.369,319.761 382.5,320.5C 361.5,340.833 340.833,361.5 320.5,382.5C 319.761,382.631 319.094,382.464 318.5,382C 297.632,360.965 276.632,340.132 255.5,319.5C 255.5,318.833 255.5,318.167 255.5,317.5C 276.5,297.167 297.167,276.5 317.5,255.5C 339.415,235.086 360.915,214.086 382,192.5C 382.464,191.906 382.631,191.239 382.5,190.5C 392.132,181.369 401.632,172.036 411,162.5C 420.825,149.097 423.158,134.43 418,118.5C 405.861,94.3504 386.695,85.8504 360.5,93C 356.172,94.8287 352.172,97.162 348.5,100C 338.964,109.368 329.631,118.868 320.5,128.5C 298.529,108.197 277.196,87.1965 256.5,65.5C 256.167,64.8333 255.833,64.1667 255.5,63.5C 266.632,52.8688 277.632,42.0354 288.5,31C 309.534,13.6479 333.534,3.14788 360.5,-0.5 Z"/></g>
<g><path style="opacity:0.991" fill="#5415a6" d="M 256.5,65.5 C 277.196,87.1965 298.529,108.197 320.5,128.5C 340.833,149.5 361.5,170.167 382.5,190.5C 382.631,191.239 382.464,191.906 382,192.5C 360.915,214.086 339.415,235.086 317.5,255.5C 297.167,234.5 276.5,213.833 255.5,193.5C 255.5,192.833 255.5,192.167 255.5,191.5C 255.168,149.33 255.501,107.33 256.5,65.5 Z"/></g>
<g><path style="opacity:0.989" fill="#28aaf9" d="M 190.5,128.5 C 191.239,128.369 191.906,128.536 192.5,129C 213.368,150.035 234.368,170.868 255.5,191.5C 255.5,192.167 255.5,192.833 255.5,193.5C 234.5,213.833 213.833,234.5 193.5,255.5C 171.585,275.914 150.085,296.914 129,318.5C 128.536,319.094 128.369,319.761 128.5,320.5C 118.868,329.631 109.368,338.964 100,348.5C 90.1749,361.903 87.8416,376.57 93,392.5C 105.139,416.65 124.305,425.15 150.5,418C 154.828,416.171 158.828,413.838 162.5,411C 172.036,401.632 181.369,392.132 190.5,382.5C 191.239,382.369 191.906,382.536 192.5,383C 213.368,404.035 234.368,424.868 255.5,445.5C 255.5,446.167 255.5,446.833 255.5,447.5C 244.368,458.131 233.368,468.965 222.5,480C 201.466,497.352 177.466,507.852 150.5,511.5C 139.833,511.5 129.167,511.5 118.5,511.5C 60.5795,502.09 22.4128,469.424 4,413.5C 2.41113,406.379 0.911125,399.379 -0.5,392.5C -0.5,381.833 -0.5,371.167 -0.5,360.5C 3.14788,333.534 13.6479,309.534 31,288.5C 42.0354,277.632 52.8688,266.632 63.5,255.5C 64.2389,255.631 64.9056,255.464 65.5,255C 87.0865,233.915 108.086,212.415 128.5,190.5C 149.5,170.167 170.167,149.5 190.5,128.5 Z"/></g>
<g><path style="opacity:0.991" fill="#783bcc" d="M 193.5,255.5 C 213.833,276.5 234.5,297.167 255.5,317.5C 255.5,318.167 255.5,318.833 255.5,319.5C 255.5,361.5 255.5,403.5 255.5,445.5C 234.368,424.868 213.368,404.035 192.5,383C 191.906,382.536 191.239,382.369 190.5,382.5C 170.167,361.5 149.5,340.833 128.5,320.5C 128.369,319.761 128.536,319.094 129,318.5C 150.085,296.914 171.585,275.914 193.5,255.5 Z"/></g>
<g><path style="opacity:0.989" fill="#5415a6" d="M 447.5,255.5 C 458.131,266.632 468.965,277.632 480,288.5C 497.352,309.534 507.852,333.534 511.5,360.5C 511.5,371.167 511.5,381.833 511.5,392.5C 502.09,450.42 469.424,488.587 413.5,507C 406.379,508.589 399.379,510.089 392.5,511.5C 381.833,511.5 371.167,511.5 360.5,511.5C 333.534,507.852 309.534,497.352 288.5,480C 277.632,468.965 266.632,458.131 255.5,447.5C 255.5,446.833 255.5,446.167 255.5,445.5C 255.5,403.5 255.5,361.5 255.5,319.5C 276.632,340.132 297.632,360.965 318.5,382C 319.094,382.464 319.761,382.631 320.5,382.5C 329.631,392.132 338.964,401.632 348.5,411C 361.903,420.825 376.57,423.158 392.5,418C 416.65,405.861 425.15,386.695 418,360.5C 416.171,356.172 413.838,352.172 411,348.5C 401.632,338.964 392.132,329.631 382.5,320.5C 382.369,319.761 382.536,319.094 383,318.5C 404.085,296.914 425.585,275.914 447.5,255.5 Z M 382.5,320.5 C 392.132,329.631 401.632,338.964 411,348.5C 413.838,352.172 416.171,356.172 418,360.5C 425.15,386.695 416.65,405.861 392.5,418C 376.57,423.158 361.903,420.825 348.5,411C 338.964,401.632 329.631,392.132 320.5,382.5C 340.833,361.5 361.5,340.833 382.5,320.5 Z"/></g>
</svg>
